<svg t="1741915575834" class="icon" viewBox="0 0 1024 1024" version="1.1" xmlns="http://www.w3.org/2000/svg" p-id="1924" width="16" height="16"><path d="M256.014 149.338c0 11.782-9.546 21.344-21.328 21.344s-21.344-9.562-21.344-21.344c0-11.78 9.562-21.326 21.344-21.326 11.782 0 21.328 9.546 21.328 21.326z" fill="#5D9CEC" p-id="1925"></path><path d="M128.018 106.574c0 11.782-9.546 21.328-21.328 21.328s-21.342-9.546-21.342-21.328 9.562-21.344 21.342-21.344 21.328 9.562 21.328 21.344z" fill="#4FC2E9" p-id="1926"></path><path d="M256.014 21.342c0 11.782-9.546 21.344-21.328 21.344s-21.344-9.562-21.344-21.344S222.904 0.014 234.686 0.014c11.782 0 21.328 9.546 21.328 21.328z" fill="#FC6E51" p-id="1927"></path><path d="M853.312 703.778c0 11.782-9.532 21.342-21.312 21.342s-21.312-9.56-21.312-21.342 9.532-21.344 21.312-21.344 21.312 9.562 21.312 21.344z" fill="#4FC2E9" p-id="1928"></path><path d="M512.008 831.87a21.32 21.32 0 0 1-21.328 21.342c-11.782 0-21.344-9.532-21.344-21.342 0-11.75 9.562-21.312 21.344-21.312 11.78-0.002 21.328 9.562 21.328 21.312z" fill="#EC87C0" p-id="1929"></path><path d="M341.34 789.306c0 11.812-9.546 21.376-21.328 21.376-11.78 0-21.328-9.562-21.328-21.376 0-11.75 9.546-21.312 21.328-21.312s21.328 9.562 21.328 21.312z" fill="#FC6E51" p-id="1930"></path><path d="M85.348 618.686c0 11.75-9.546 21.312-21.328 21.312-11.78 0-21.328-9.562-21.328-21.312 0-11.812 9.546-21.376 21.328-21.376 11.78 0 21.328 9.564 21.328 21.376z" fill="#5D9CEC" p-id="1931"></path><path d="M597.316 63.904c0 11.78-9.532 21.326-21.312 21.326-11.778 0-21.308-9.546-21.308-21.326 0-11.782 9.532-21.328 21.308-21.328 11.782 0 21.312 9.548 21.312 21.328z" fill="#4FC2E9" p-id="1932"></path><path d="M682.692 192.01c0 11.782-9.562 21.328-21.376 21.328-11.75 0-21.312-9.546-21.312-21.328s9.562-21.328 21.312-21.328c11.812 0 21.376 9.546 21.376 21.328z" fill="#FC6E51" p-id="1933"></path><path d="M853.312 362.678c0 11.78-9.532 21.326-21.312 21.326s-21.312-9.546-21.312-21.326c0-11.782 9.532-21.344 21.312-21.344s21.312 9.562 21.312 21.344z" fill="#5D9CEC" p-id="1934"></path><path d="M938.684 234.68c0 11.782-9.562 21.328-21.376 21.328-11.75 0-21.312-9.546-21.312-21.328s9.562-21.342 21.312-21.342c11.814 0 21.376 9.56 21.376 21.342zM170.688 447.674c0 11.782-9.562 21.328-21.342 21.328s-21.328-9.546-21.328-21.328c0-11.78 9.546-21.342 21.328-21.342s21.342 9.562 21.342 21.342z" fill="#EC87C0" p-id="1935"></path><path d="M453.932 652.624l-130.872 90.37 13.812-158.432-158.356-14.874 112.436-112.514-111.716-113.2 158.432-13.906-12.828-158.526 130.31 91.184 92.076-129.684 41.216 153.622 153.87-40.156-67.152 144.152 143.716 68.17-144.122 67.25 66.246 144.606-153.622-41.126-42.182 153.34z" fill="#AC92EB" p-id="1936"></path><path d="M149.346 256.04H128.018v-21.11c0-11.782-9.546-21.342-21.328-21.342s-21.342 9.56-21.342 21.342v21.11H64.02c-11.78 0-21.328 9.546-21.328 21.328s9.546 21.326 21.328 21.326h21.328v21.344c0 11.782 9.562 21.328 21.342 21.328s21.328-9.546 21.328-21.328v-21.344h21.328c11.782 0 21.342-9.544 21.342-21.326s-9.562-21.328-21.342-21.328z" fill="#A0D468" p-id="1937"></path><path d="M746.688 810.432h-21.376v-21.124c0-11.75-9.532-21.312-21.308-21.312-11.782 0-21.312 9.562-21.312 21.312v21.124h-21.376c-11.75 0-21.312 9.562-21.312 21.344 0 11.78 9.562 21.342 21.312 21.342h21.376v21.31c0 11.812 9.532 21.344 21.312 21.344 11.778 0 21.308-9.532 21.308-21.344v-21.31h21.376c11.75 0 21.312-9.562 21.312-21.342 0-11.782-9.562-21.344-21.312-21.344z" fill="#ED5564" p-id="1938"></path><path d="M959.996 512h-21.312v-21.108c0-11.782-9.562-21.344-21.376-21.344-11.75 0-21.312 9.562-21.312 21.344V512h-21.312c-11.812 0-21.372 9.548-21.372 21.328 0 11.796 9.558 21.36 21.372 21.36h21.312V576c0 11.78 9.562 21.31 21.312 21.31 11.812 0 21.376-9.532 21.376-21.31v-21.312h21.312c11.782 0 21.312-9.562 21.312-21.36 0-11.78-9.53-21.328-21.312-21.328z" fill="#A0D468" p-id="1939"></path><path d="M874.684 85.122h-21.372V64.014c0-11.782-9.532-21.328-21.312-21.328s-21.312 9.546-21.312 21.328v21.108h-21.376c-11.75 0-21.312 9.546-21.312 21.328 0 11.796 9.562 21.344 21.312 21.344h21.376V149.12c0 11.782 9.532 21.328 21.312 21.328s21.312-9.546 21.312-21.328V127.792h21.372c11.75 0 21.312-9.546 21.312-21.344 0-11.78-9.562-21.326-21.312-21.326z" fill="#ED5564" p-id="1940"></path><path d="M448.01 42.452h-21.328V21.342c0-11.782-9.562-21.328-21.342-21.328s-21.328 9.546-21.328 21.328v21.11h-21.328c-11.782 0-21.342 9.562-21.342 21.344 0 11.78 9.562 21.326 21.342 21.326h21.328v21.328c0 11.796 9.546 21.344 21.328 21.344s21.342-9.546 21.342-21.344V85.122h21.328c11.78 0 21.328-9.546 21.328-21.326-0.002-11.782-9.548-21.344-21.328-21.344z" fill="#48CFAD" p-id="1941"></path><path d="M479.696 429.708c-68.232 40.952-131.418 96.388-187.824 164.792-44.858 54.438-85.544 117.124-120.934 186.372-60.186 117.746-83.982 212.682-84.966 216.682h0.016c-0.39 1.624-0.64 3.344-0.64 5.124 0 11.75 9.562 21.31 21.342 21.31 10.016 0 18.39-6.938 20.688-16.216h0.016c0.234-0.906 23.578-94.092 81.528-207.462 34-66.532 72.982-126.622 115.872-178.684 53.296-64.624 112.794-116.886 176.854-155.324l-21.952-36.594z" fill="#F6BB42" p-id="1942"></path><path d="M554.696 448.002c0 35.344-28.672 63.998-64.014 63.998s-64-28.654-64-63.998c0-35.342 28.656-63.998 64-63.998s64.014 28.656 64.014 63.998z" fill="#FFCE54" p-id="1943"></path></svg>